<svg id="Group_13320" data-name="Group 13320" xmlns="http://www.w3.org/2000/svg" xmlns:xlink="http://www.w3.org/1999/xlink" width="600" height="200" viewBox="0 0 600 200">
  <defs>
    <clipPath id="clip-path">
      <rect id="Rectangle_16016" data-name="Rectangle 16016" width="600" height="200" fill="none"/>
    </clipPath>
  </defs>
  <g id="Group_13319" data-name="Group 13319" clip-path="url(#clip-path)">
    <path id="Path_618" data-name="Path 618" d="M315.838,135.571a3.668,3.668,0,0,0-2.47-1.659,6.085,6.085,0,0,1-1.943-.9,12.654,12.654,0,0,1-1.349-2c-.306-.518-.6-1.008-.889-1.417-.787-1.527-3.388-1.563-7.234-1.444a21,21,0,0,1-2.753-.011l-.126-.011a17.8,17.8,0,0,1-6.179-1.849c-.806-.346-1.57-.674-2.33-.957a3.193,3.193,0,0,1-.3-1.768,9.046,9.046,0,0,0-.086-1.377,9.189,9.189,0,0,0-1.732-5l-.133-.222c-.619-1.145-1.38-2.572-3.616-2.5a11.554,11.554,0,0,0-2.236-.019c-1.756.1-2.941.094-3.39-.757l-.076-.122c-.4-.547-.779-1.185-1.183-1.862-1.388-2.322-3.114-5.211-6.46-5.229l-.261,0-.229.124a3.265,3.265,0,0,0-1,.913c-.324.4-.374.453-.626.442h-.077l-.076.011c-4.616.651-5.015.007-5.568-.887-.567-.916-1.344-2.172-4.315-2.732l-.143-.016a8.124,8.124,0,0,1-1.628-.346c-1.5-.417-3.547-.988-4.912.732-.56.637-1.447,1.657-2.3,2.64-.556.641-1.1,1.265-1.526,1.754l-.149.171c-.679.776-.678.777-1.157.7-1.526-.238-5.539-.915-7.132-1.191l-.082-.011c-.273-.025-.278-.064-.264-.292l0-.068,0-.067c-.045-.619-.1-1.458-.155-2.383-.138-2.214-.31-4.969-.481-6.35l-.023-.124a1.942,1.942,0,0,0-1.48-1.427c-.723-.2-1.7-.356-2.65-.51-.548-.089-1.079-.175-1.492-.258-.156-.034-.306-.063-.447-.09l-.1-.02c.181-.394.4-.8.633-1.225a14.518,14.518,0,0,0,1.059-2.244l.027-.091c.291-1.226.27-3.318-.982-4.052-.437-.257-1.344-.522-2.549.53-.864.53-1.807,1.195-2.72,1.839a28.132,28.132,0,0,1-4.344,2.717c-.273-.015-.568-.025-.876-.034-1.4-.044-3.311-.1-3.889-.931q-.115-.228-.237-.462a6.461,6.461,0,0,1-1-2.939,20.822,20.822,0,0,1,4-9.01,32.249,32.249,0,0,1,3.6-1.909c.785-.379,1.527-.737,2.051-1.03a2.536,2.536,0,0,1,1.334-.382h.024c.973.043,2.53.02,4.333-.006,2.559-.037,5.684-.082,7.515.081a6.249,6.249,0,0,1,.008.751,7.522,7.522,0,0,0,.027,1.132c.019,2.2,2.411,3.11,3.847,3.655.334.127.65.247.85.348l.141.058a1.475,1.475,0,0,0,1.352-.16,1.6,1.6,0,0,0,.643-1.312,14.718,14.718,0,0,0-.088-2.479,12.548,12.548,0,0,1-.024-3.252c1.516-2.383,4.125-4.068,6.65-5.7.873-.564,1.776-1.146,2.621-1.751l.113-.094a5.329,5.329,0,0,0,1.5-2.99,3.712,3.712,0,0,1,1.509-2.582l.1-.087c.731-.72,1.454-1.5,2.153-2.248a42.081,42.081,0,0,1,3.441-3.426c.863-.543,2.044-1.182,3.187-1.8,1.059-.574,2.059-1.116,2.831-1.587a3.258,3.258,0,0,0,1.42-1.681c.032-.068.064-.139.1-.213a23.374,23.374,0,0,1,3.464-3.368l.233-.2c.22-.188.376-.179,1.119.075a3.919,3.919,0,0,0,1.934.288l.113-.025a3.4,3.4,0,0,0,1.992-1.487,1.71,1.71,0,0,0,.1-1.381l-.075-.205-.152-.156a3.412,3.412,0,0,0-1.589-.75c-.494-.14-1.17-.332-1.286-.625a.435.435,0,0,1,.037-.518,1.85,1.85,0,0,1,1.637-.439,3.383,3.383,0,0,1,1.569.916,3.913,3.913,0,0,0,3.883,1.147,5.139,5.139,0,0,0,2.886-1.07,6.4,6.4,0,0,1,.994-.553,3.515,3.515,0,0,1-.519,1.027c-.555.882-1.484,2.358-.113,3.733l.139.117c1.015.706,6.355,2.937,8.024,1.865l.094-.069a2.807,2.807,0,0,0,.989-2.189,2.7,2.7,0,0,0-.925-2.04,6.149,6.149,0,0,0-2.012-1.132,9.644,9.644,0,0,1-1.816-.926c.02-.02.043-.041.07-.064a4.484,4.484,0,0,1,.973-.435,4.342,4.342,0,0,0,2.138-1.326l.081-.1.052-.123c1.7-4.081-.592-5.449-2.107-6.355-1.247-.746-1.9-1.191-1.826-2.4l0-.177-.037-.149a9.009,9.009,0,0,1-.026-1.278c.03-1.621.058-3.152-.934-3.779a1.556,1.556,0,0,0-1.5-.067,12.352,12.352,0,0,0-2.15,1.008c-.972.523-3,1.614-3.548,1.346-.027-.013-.076-.088-.114-.24.026-.3.051-.576.075-.831.322-3.473.1-4.029-4.008-4.892l-.636-.134-.127-.035c-3.258-.894-5.052-1.387-7.936,1.707l-.115.15c-.862,1.364-.767,3.008-.676,4.6a13.126,13.126,0,0,1,.014,2.139l-.014.122.016.121c.125.972-.259,1.253-2.423,1.77a6.314,6.314,0,0,0-3.657,1.77,10.418,10.418,0,0,0-1.141,2.088,7.963,7.963,0,0,1-1.1,1.966,2.853,2.853,0,0,1-.864.462,8.884,8.884,0,0,1-.152-2.537c.012-.439.024-.855.012-1.227.122-2.811-2.548-2.982-3.985-3.074a6.093,6.093,0,0,1-1.648-.238l-.127-.043c-.859-.231-2.91-.97-3.387-2.8-.062-.277-.146-.544-.227-.8a3.41,3.41,0,0,1-.234-1.117c.391-.243.808-.5,1.248-.781a67.434,67.434,0,0,1,9.338-5.2,8.714,8.714,0,0,0,1.234-.385,4.367,4.367,0,0,1,1.456-.374c.083.172.165.388.245.6a4.623,4.623,0,0,0,.913,1.653,2.194,2.194,0,0,0,2.507.419,4.881,4.881,0,0,0,1.446-.98,3.955,3.955,0,0,1,.858-.637l.119-.07a2.2,2.2,0,0,1,.308-.14,2.219,2.219,0,0,0,1.367-1.171,2.06,2.06,0,0,0-.244-1.641c-.033-.071-.078-.168-.114-.255a4.3,4.3,0,0,1,.834-.2,5.623,5.623,0,0,0,1.157-.288,9.089,9.089,0,0,0,2.538-1.782c.982-.888,1.689-1.53,3.005-1.464l.085,0,.083-.01c.589-.068,1.131-.15,1.638-.228,2.342-.356,3.485-.53,5.1,1.234-.915.508-1.991,1.072-3.126,1.667-1.327.7-2.7,1.416-3.822,2.052a1.266,1.266,0,0,0-.754,1.292c.111.8.93,1.015,1.249,1.1,1.064.263,3.724.893,6.034,1.44l2.931.694a2.456,2.456,0,0,0,2.154-.188l.16-.12.1-.171c.43-.716.727-1.273.966-1.721a3.363,3.363,0,0,1,.666-1.041,7.916,7.916,0,0,1,1.974-.209c.375-.018.8-.039,1.3-.069l.208-.034a3.823,3.823,0,0,0,2.647-4.108l-.056-.174a2.638,2.638,0,0,0-1.726-1.281,2.534,2.534,0,0,1-.8-.391,2.486,2.486,0,0,1-.242-1.434,4.9,4.9,0,0,0-.3-2.009l-.081-.179-.141-.135c-1.124-1.076-3.119-1.87-5.232-2.71A37.4,37.4,0,0,1,288.5,8.655a6.41,6.41,0,0,0-.742-.378,60.39,60.39,0,0,0-8.4-1.532,98.119,98.119,0,0,0-20.63,5.873,2.66,2.66,0,0,1,.675,1.914c1.108-.456,2.222-.9,3.352-1.309a3.652,3.652,0,0,1,.582.124c.239.08.486.136.725.191.157.035.393.089.538.135-.005.086-.019.191-.029.257-.018.092-.035.186-.052.282a3.171,3.171,0,0,1-.178.707c-.036.008-.094.018-.183.03-.356.044-.825.068-1.32.094a14.458,14.458,0,0,0-2.325.239,2.657,2.657,0,0,0-1.647,1.57c-.076.147-.148.287-.21.384a.309.309,0,0,1-.1.019c-.861.038-2.723.094-4.178.133a3.08,3.08,0,0,1-.374.057c-2.239.179-4.466.388-6.672.687A98.816,98.816,0,0,0,200,80.416c.593,1.2,1.187,2.407,1.759,3.62,1.053,1.543,2.337,3.437,2.891,4.256l.065.085c.192.228.174.422-.318,1.349a6.7,6.7,0,0,0-.508,1.116c-.437,1.217.1,2.043.787,3.088l.842,1.3c.528.815,1.071,1.654,1.532,2.358a3.193,3.193,0,0,0,2.315,1.7l2.137.53c2.069.514,4.709,1.17,5.894,1.451a1.746,1.746,0,0,0,2.149-.88,2.051,2.051,0,0,1,.118-.181,3.277,3.277,0,0,1,1.846.241,2.937,2.937,0,0,1,.033.535v.109c-.107,1.435.988,2.495,2.808,2.715.932.166,1.993.459,3.116.769l.612.168c.213.067.43.125.646.183a3.684,3.684,0,0,1,1.3.508c.667.666,1.672,1.853,2.735,3.11,1.371,1.62,2.789,3.295,3.909,4.374l.156.124a2.959,2.959,0,0,0,1.38.4l.134.014c.649.055,1.724.134,2.864.218,1.594.118,3.4.25,4.2.332a3.016,3.016,0,0,1,.057.388c.059.575.149,1.288.244,2.029.154,1.21.328,2.582.36,3.357,0,.189-.5.513-.865.749a9.281,9.281,0,0,0-.805.566l-1.028.726c-.562.395-1.127.793-1.657,1.169a3.062,3.062,0,0,0-1.668,2.966c-.031.6-.057,1.235-.083,1.879-.038.921-.076,1.874-.132,2.742a9.772,9.772,0,0,1-.339,1.907,7.687,7.687,0,0,0-.331,3.024l.039.22.127.183c1.218,1.756,2.97,3.929,4.665,6.03,1.075,1.334,2.092,2.593,2.928,3.694l.2.253a2.57,2.57,0,0,1,.765,1.446c.427,3.206,1.263,3.734,3.2,4.244a12.177,12.177,0,0,1,1.9.631,33.463,33.463,0,0,1,2.87,2c.361.268.733.546,1.123.831.315.265.664.51,1,.747a7.058,7.058,0,0,1,1.128.9c.019.208.014.478.008.845s-.015.824,0,1.371v6.826c0,4.174,0,8.463,0,9.893a1.681,1.681,0,0,0,.784,1.459l.17.088a11.381,11.381,0,0,1,1.285.569,8.687,8.687,0,0,1-.148.932c-.052.272-.111.583-.171.938-.132.753-.282,1.59-.427,2.4-.238,1.326-.463,2.577-.56,3.2a3.019,3.019,0,0,0,.749,2.578c.531.721,1.145,1.546,1.729,2.331l.645.867c.647.855.716,1.039.671,1.774l-.021.34c-.02.324-.043.647-.069.963.3,1,.552,2,.77,3.016A98.16,98.16,0,0,0,275.341,200q1.336-1.026,2.7-2.016a3.4,3.4,0,0,0,.757-2.723,2.474,2.474,0,0,0-1.424-1.513l-.048-.021a2.986,2.986,0,0,1-.941-.592,3.431,3.431,0,0,1,1.486-.413c.3-.043.617-.087.914-.156a28.421,28.421,0,0,0,8.422-3.845l.168-.112.112-.166c.593-.876,1.108-1.735,1.606-2.565a27.528,27.528,0,0,1,3.142-4.506l.047-.055c.667-.859,1.356-1.74,2.042-2.618l1.807-2.314c.858-1.1,1.224-1.645.9-3.151-.125-.6-.267-1.217-.409-1.831-.082-.356-.164-.712-.235-1.023-.069-.392-.163-.765-.255-1.126a3.931,3.931,0,0,1-.192-2.062c.079-.159.161-.334.247-.518.438-.937,1.037-2.215,1.8-2.215h.093c.539-.008,1.094.022,1.633.047,2.264.106,4.827.228,6.852-2.006.183-.158.394-.315.616-.48a3.91,3.91,0,0,0,1.978-2.8c.154-1.051.294-2.616.457-4.426.252-2.814.566-6.3,1.019-8.5a20.535,20.535,0,0,1,1.848-2.415,14.9,14.9,0,0,0,3.171-4.93,4.292,4.292,0,0,0,.183-3.383M291.5,46.364a7.036,7.036,0,0,0,.629-1.159c.36,1.08,1.72,1.663,3.039,2.229a8.539,8.539,0,0,1,1.318.64l.159.157a.7.7,0,0,1,.23.534.828.828,0,0,1-.162.514c-.938.139-4.537-1.029-5.666-1.751-.108-.134-.088-.305.453-1.164M270.631,13.777a5.56,5.56,0,0,1,1.3-1.389c.287-.248.584-.5.824-.75a4.828,4.828,0,0,0,.785-.867,1.536,1.536,0,0,0,.273-.845c.836-.195,1.675-.382,2.519-.555a14.728,14.728,0,0,0-2.311,1.469L273.86,11a4.352,4.352,0,0,0-.632,3.327,7.87,7.87,0,0,1,.049,1l-.005.109.018.109a1.344,1.344,0,0,1,.022.349,6.682,6.682,0,0,1-2.039-.338l-.058-.016a1.437,1.437,0,0,1-.584-1.757M246.3,45.439a4.379,4.379,0,0,1,1.935-.408c.3.005.691,0,1.107,0,.809-.009,1.727-.018,2.374.036l.073.009a1.578,1.578,0,0,1,1.287,1.07l.033.118a.664.664,0,0,0,.291.375,1,1,0,0,1,.367-.407l.438-.282.689.257.126.106c.257.214,1.971,1.776,2.312,2.087l.047.046a1.078,1.078,0,0,1,.292,1.053,1.037,1.037,0,0,1-.625.693l.173.268.034.2a5.386,5.386,0,0,1,.039.953c0,.14-.005.28,0,.4v.052c0,.062,0,.13,0,.2v.057a1.668,1.668,0,0,1,.644.034l-.125-.116-.329-.307.013-.8.192-.261a6.542,6.542,0,0,1,.617-.677c.1-.106.2-.206.278-.287l.036-.039a1.266,1.266,0,0,1,1.2-.463l.153.031.136.076a14.1,14.1,0,0,1,1.925,1.237l.482.438-.2.619a1.768,1.768,0,0,1-.683.82c-.055.043-.107.082-.144.117l-.1.083c-.078.057-.162.133-.246.208s-.147.13-.222.193c.5.152.96.305,1.319.447l.377.15.267.578.019.159a7.589,7.589,0,0,1,.028.951c0,.159,0,.32,0,.473l0,.071-.009.07a1.13,1.13,0,0,0,0,.153c.062,1.2-.639,1.511-1.061,1.592l-.149.017c-.6.025-3.087.007-3.192.007l-.053,0a1.518,1.518,0,0,1-.983-.4l-.085-.088a8.1,8.1,0,0,1-.936-1.362,7.111,7.111,0,0,1-.117,1.85l-.02.063a3.31,3.31,0,0,1-.928,1.187c-.1.1-.2.195-.281.281l-.047.047c-.048.044-.093.091-.137.136a2.064,2.064,0,0,1-1.322.73c-.24.014-.629.018-1.076.018l-.616,0c-.383,0-.767,0-1.082,0h-.04l-.038,0a2.107,2.107,0,0,0-.224,0,1.239,1.239,0,0,1-1.448-1.009l-.029-.147.016-.149a10.734,10.734,0,0,1,.666-2.585l.092-.132a1.9,1.9,0,0,1,1.458-.618c.068-.005.135-.007.2-.018l.161-.014c.035-.037.085-.1.124-.147s.072-.089.113-.137a1.131,1.131,0,0,1-.16-.126l-.218-.206-.071-.291a8.338,8.338,0,0,1-.094-1.989c.009-.372.019-.723,0-.98l0-.077.007-.077c0-.041,0-.108,0-.181a3.841,3.841,0,0,1,.018-.643h-.3a1.183,1.183,0,0,1-.263.735c-.569.808-3.95,5.511-4.669,6.495l-.032.042a1.358,1.358,0,0,1-1.678.388c-2.267-.986-2.509-1.68-2.182-3.56.04-.224.084-.478.126-.77a2.764,2.764,0,0,1,.713-1.564c.232-.238.5-.533.779-.845.37-.411.748-.831,1.1-1.185l-.133-.033c-.841-.208-1.711-.423-2.058-1.257a2.18,2.18,0,0,1,.3-1.909,4.3,4.3,0,0,1,2.491-1.634c.279-.1.543-.2.738-.293m-10.13-7.4.163-.14a3.068,3.068,0,0,1,.786-.463c.1-.046.211-.1.331-.158l.089-.042c.2-.081.429-.2.674-.329a5.391,5.391,0,0,1,1.749-.669l.1-.013.1.008a8.229,8.229,0,0,1,1.422.283c.21.056.418.11.616.152l.09.021c.426.1,1.425.344,1.445,1.3a7.972,7.972,0,0,1-.359,1.811c-.08.292-.159.574-.206.8l-.038.138a2.4,2.4,0,0,0-.079.332,2.188,2.188,0,0,1-.743,1.411l-.1.079-.117.053a19.653,19.653,0,0,1-2.01.684c-.232.07-.441.133-.6.185a1.867,1.867,0,0,1-.51.075,1.347,1.347,0,0,1-1.193-.707l-.036-.071c-.067-.148-.211-.435-.388-.787A26.888,26.888,0,0,1,236,39.028l-.119-.378Z" fill="#dccfc3"/>
    <path id="Path_619" data-name="Path 619" d="M379.413,57.005c-.375-.207-.757-.405-1.138-.6-1.507-.753-2.93-1.464-3.364-2.731-.06-.181-.14-.389-.227-.61a8.064,8.064,0,0,1-.38-1.143l.066.005.089.007.089-.009a5.054,5.054,0,0,1,3.135.478c.116.183.225.371.339.555a6.256,6.256,0,0,1,.183-1.209c.153-.615.281-1.158.377-1.7A99.119,99.119,0,0,0,368.617,37.3c-1.193.1-2.385.143-3.586.158-2.659.61-3.564,1.786-4.723,3.58a20.413,20.413,0,0,1-1.892,2.584,6.366,6.366,0,0,1-2.62.661,10.216,10.216,0,0,0-2.643.553l-.052.023c-1.839.873-2.029,4.724-1.683,5.862l.05.131a2.928,2.928,0,0,0,1.21,1.216,1.36,1.36,0,0,1,.447.351c.1.68-.013.951-.064,1-.278.256-1.676-.063-2.348-.217-.226-.051-.448-.1-.663-.147a9.54,9.54,0,0,0-5.077.168l-.494.111a4.293,4.293,0,0,0-3.139,1.723c-1.324,1.82-1.035,4.494-.72,6a5.485,5.485,0,0,0,1.5,4.068,6.883,6.883,0,0,0,5.04,1.678c.091,0,.182,0,.275,0,.608-.038,1.235-.029,1.9-.018A10.761,10.761,0,0,0,354.51,66l.127-.063.105-.1a7.616,7.616,0,0,0,1.642-2.459,6.148,6.148,0,0,1,1.139-1.806,14.131,14.131,0,0,0,1.69-2.186c.81-1.186,2.156-3.171,2.953-3a4.834,4.834,0,0,0,5.155-1.246c.286-.238.563-.467.855-.666.029.072.056.145.079.207a3.069,3.069,0,0,0,.826,1.372,51.269,51.269,0,0,0,4.455,3.146c1.24.816,2.419,1.593,3.282,2.249a1,1,0,0,1-.279.093l-.119.026a5.023,5.023,0,0,1-1.159.1,2.419,2.419,0,0,0-2.065.645,1.544,1.544,0,0,0,.095,1.966,4.731,4.731,0,0,0,4.13,1.812,4.094,4.094,0,0,0,3.5-2.026,4.655,4.655,0,0,0,.377-1.543c.018-.163.037-.326.073-.529a5.8,5.8,0,0,1,.235-.941,4.4,4.4,0,0,0,.231-1.14c-.727-1.021-1.661-1.9-2.423-2.909" fill="#dccfc3"/>
    <path id="Path_620" data-name="Path 620" d="M388.995,71.01c-.938-.045-1.875-.067-2.815-.075a4.167,4.167,0,0,0-1.727.726l-.044.038a3.091,3.091,0,0,0-.8,2.009,3.212,3.212,0,0,1-.14.726c-.171.181-.5.112-1.737-.589a6.1,6.1,0,0,0-2.189-.9c-.876-.252-1.97-.513-3.125-.788a49.1,49.1,0,0,1-4.893-1.329,9.821,9.821,0,0,1-.13-2.82,13.47,13.47,0,0,0-.034-2.355,1.733,1.733,0,0,0-.634-1.257,2.946,2.946,0,0,0-2.377-.279,4.8,4.8,0,0,1-.952.091l-.119-.011-.121.018a35.98,35.98,0,0,1-3.961.295,22.109,22.109,0,0,0-7.262,1.1l-.19.1a9.178,9.178,0,0,1-6.13,1.47l-.064,0c-.388-.01-.763-.031-1.128-.051-1.958-.107-3.811-.209-5.747,1.211a7.94,7.94,0,0,1-1.362.745c-1.28.6-3.025,1.427-3.12,3.449a10.6,10.6,0,0,0-.009,2.189c.065,1.071.154,2.532-.288,2.966-.8.584-2.372,1.716-4.137,2.985-2.845,2.046-6.071,4.364-7.494,5.431l-.142.128c-.965,1.056-.559,2.3-.263,3.208.067.207.138.419.2.648a3.2,3.2,0,0,0,2.164,2.1c.16.068.313.134.453.2a2.767,2.767,0,0,1-.6,1.854l-.043.049a2.89,2.89,0,0,1-.37.352,3.372,3.372,0,0,0-.885,1.03l-.064.126-.028.139a35.583,35.583,0,0,0-.287,6.665c.013.947.026,1.841.011,2.625l-.005.254.116.226a25.982,25.982,0,0,0,4.044,5.083c1.084,1.171,2.312,2.5,3.482,3.951l.094.1a14.355,14.355,0,0,1,1.535,1.785c1.085,1.413,2.206,2.877,4.681,2.676a8.961,8.961,0,0,0,3.221-.425,11.326,11.326,0,0,1,1.727-.361c.771-.022,1.788-.015,2.771-.008,1.246.01,2.536.018,3.427-.031a4.533,4.533,0,0,0,2.708-1.3,6.985,6.985,0,0,1,.809-.609c1.008-.6,3.182-.363,3.961-.278a3.629,3.629,0,0,1,1.613,1.088,11.216,11.216,0,0,0,.94.813l.061.042a9.847,9.847,0,0,0,4.668,1.073,15.579,15.579,0,0,1,2.1.222l.12.025.123,0a.492.492,0,0,1,.2.026.405.405,0,0,1-.014.078l-.034.178c-.084.908-.239,2.455-.39,3.953-.14,1.406-.277,2.769-.347,3.525a3.526,3.526,0,0,0,.561,2.578c.6,1.175,1.728,3.1,2.921,5.141,1.7,2.912,3.614,6.188,4.36,7.877a22.149,22.149,0,0,1-1.694,3.371,15.583,15.583,0,0,0-2.269,5.4c-.434,2.806,1.026,4.407,2.089,5.576a4.271,4.271,0,0,1,1.043,1.463,18.779,18.779,0,0,0,1.891,1.308c.026-.075.056-.15.076-.224A97.984,97.984,0,0,0,388.995,71.01" fill="#dccfc3"/>
    <path id="Path_621" data-name="Path 621" d="M400,98.4C400,44.144,355.713,0,301.278,0A98.772,98.772,0,0,0,203.6,84.073a3.1,3.1,0,0,0-.1.3l.053.014A98.445,98.445,0,0,0,202.555,98.4c0,47.746,34.294,87.652,79.617,96.547a3.756,3.756,0,0,0,.692.166,92.069,92.069,0,0,0,17.984,1.751,101.459,101.459,0,0,0,46.845-11.637,95.14,95.14,0,0,0,33.691-28.94,5.24,5.24,0,0,0,1-1.848A97.627,97.627,0,0,0,400,98.4m-18.184,53.265a11.285,11.285,0,0,0-.94-1.135c-.962-1.056-1.871-2.054-1.581-3.932a13.946,13.946,0,0,1,2.022-4.68A21.252,21.252,0,0,0,383.3,137.8l.1-.339-.13-.329a89.511,89.511,0,0,0-4.634-8.485c-1.19-2.036-2.314-3.959-2.884-5.078l-.045-.079a1.543,1.543,0,0,1-.3-1.245l.009-.076c.069-.745.207-2.122.35-3.545.146-1.46.3-2.967.383-3.888a2.03,2.03,0,0,0-.35-1.77,2.23,2.23,0,0,0-1.752-.805,18.147,18.147,0,0,0-2.28-.24,8.481,8.481,0,0,1-3.671-.738c-.237-.181-.481-.408-.739-.647a5.174,5.174,0,0,0-2.741-1.618c-1.816-.2-3.862-.288-5.267.55a8.576,8.576,0,0,0-1.062.787,2.7,2.7,0,0,1-1.512.836c-.838.047-2.1.039-3.31.029-1.019-.007-2.069-.015-2.882.011l-.062,0a12.751,12.751,0,0,0-2.086.421,7.161,7.161,0,0,1-2.583.36l-.106-.012-.107.011c-1.368.134-1.9-.48-2.972-1.88a16.546,16.546,0,0,0-1.7-1.977c-1.2-1.484-2.437-2.822-3.53-4a27.164,27.164,0,0,1-3.613-4.417c.008-.747,0-1.564-.015-2.425a37.589,37.589,0,0,1,.215-6.068,2.631,2.631,0,0,1,.341-.325,4.759,4.759,0,0,0,.607-.593,4.809,4.809,0,0,0,1.108-3.3,2.022,2.022,0,0,0-.761-1.5l-.1-.068a7.606,7.606,0,0,0-.82-.392c-.676-.289-.9-.413-1-.767-.067-.256-.148-.5-.227-.748-.228-.7-.3-1-.2-1.167,1.458-1.088,4.588-3.338,7.359-5.329,1.8-1.3,3.41-2.452,4.2-3.028l.066-.053c1.219-1.06,1.1-2.96,1-4.636a9.016,9.016,0,0,1-.007-1.78l.016-.157c.019-.754.611-1.111,1.958-1.746a9.616,9.616,0,0,0,1.713-.955c1.334-.979,2.628-.908,4.416-.81.373.02.755.041,1.149.053a11.15,11.15,0,0,0,7.314-1.741,20.635,20.635,0,0,1,6.5-.92,39.478,39.478,0,0,0,4.077-.3,6.645,6.645,0,0,0,1.312-.117c.2-.031.489-.077.694-.088a13.631,13.631,0,0,1,0,1.9,8.3,8.3,0,0,0,.5,4.171l.168.31.326.138a40.487,40.487,0,0,0,5.591,1.583c1.172.28,2.279.543,3.12.79l.11.032.115.007a4.79,4.79,0,0,1,1.436.649c1.168.662,3.124,1.769,4.425-.027l.057-.088a3.916,3.916,0,0,0,.42-1.534,2.586,2.586,0,0,1,.164-.769,3.815,3.815,0,0,1,.9-.292c.235-.059.489-.124.739-.208a96.005,96.005,0,0,1-10.992,84.338m2.022-96.855-.1-.088c-.949-.756-2.29-1.638-3.708-2.573a50.153,50.153,0,0,1-4.257-3,2.572,2.572,0,0,1-.238-.532c-.219-.593-.629-1.695-1.876-1.737l-.255-.008-.229.113a8.964,8.964,0,0,0-1.782,1.234c-1.037.859-1.663,1.378-3.269.863l-.055-.016c-2.178-.563-3.833,1.865-5.165,3.815a13.15,13.15,0,0,1-1.415,1.862,7.9,7.9,0,0,0-1.564,2.391,6.234,6.234,0,0,1-1.089,1.752,9.575,9.575,0,0,1-4.1.5c-.671-.01-1.366-.021-2.011.02a5.415,5.415,0,0,1-3.8-1.089,3.612,3.612,0,0,1-.9-2.72v-.115l-.024-.113c-.426-1.958-.3-3.6.355-4.492a2.336,2.336,0,0,1,1.765-.9l.676-.145a7.582,7.582,0,0,1,4.13-.176l.054.012c.209.044.427.093.648.144,1.462.334,3.121.712,4.185-.274a3.021,3.021,0,0,0,.682-2.852l-.017-.084a2.642,2.642,0,0,0-1.34-1.61,2.177,2.177,0,0,1-.428-.314c-.169-.811.185-3.022.627-3.349a9.1,9.1,0,0,1,2.07-.4,7.284,7.284,0,0,0,3.687-1.117l.144-.134a22.4,22.4,0,0,0,2.15-2.91c1.21-1.875,1.711-2.651,5.42-3l-.015-.153a97.017,97.017,0,0,1,8.609,10.908,10.32,10.32,0,0,0-1.594.019,1.991,1.991,0,0,0-1.838.709c-.7.932-.206,2.186.188,3.193.072.186.141.359.194.52.706,2.062,2.658,3.037,4.381,3.9a11.029,11.029,0,0,1,2.388,1.434c.1.122.1.193-.089.795a7.414,7.414,0,0,0-.3,1.223c-.037.2-.062.408-.086.615a3.166,3.166,0,0,1-.168.857,2.093,2.093,0,0,1-1.8.922,3.18,3.18,0,0,1-1.716-.377,5.733,5.733,0,0,0,1.325-.154,2.588,2.588,0,0,0,2.01-1.547,1.759,1.759,0,0,0-.469-1.818m-.187-3.763c-1.507-.753-2.93-1.464-3.364-2.731-.06-.181-.14-.389-.227-.61a8.1,8.1,0,0,1-.381-1.142c.021,0,.043,0,.067,0l.089.007.089-.008a5.049,5.049,0,0,1,3.135.477q1.761,2.776,3.337,5.675a13.133,13.133,0,0,0-2.745-1.672M371.226,31.932c-3.312.549-4.271,1.775-5.542,3.743a20.51,20.51,0,0,1-1.892,2.584,6.351,6.351,0,0,1-2.621.661,10.259,10.259,0,0,0-2.642.553l-.052.023c-1.84.873-2.03,4.725-1.684,5.862l.05.132a2.921,2.921,0,0,0,1.211,1.215c.247.157.407.263.446.352.1.679-.012.95-.064,1-.277.255-1.675-.064-2.347-.217-.226-.052-.449-.1-.663-.147a9.541,9.541,0,0,0-5.077.167l-.494.112a4.294,4.294,0,0,0-3.14,1.722c-1.323,1.82-1.034,4.495-.72,6a5.486,5.486,0,0,0,1.5,4.068,6.886,6.886,0,0,0,5.039,1.679l.276,0c.608-.038,1.234-.028,1.9-.018a10.776,10.776,0,0,0,5.176-.777l.127-.064.105-.1a7.623,7.623,0,0,0,1.642-2.458,6.14,6.14,0,0,1,1.139-1.807,14.079,14.079,0,0,0,1.69-2.186c.81-1.186,2.156-3.17,2.953-3a4.831,4.831,0,0,0,5.154-1.246c.287-.238.563-.466.856-.666.028.072.056.146.078.208a3.074,3.074,0,0,0,.827,1.371,51.275,51.275,0,0,0,4.455,3.146c1.24.817,2.419,1.593,3.282,2.249a.961.961,0,0,1-.28.093l-.118.026a5.028,5.028,0,0,1-1.159.1,2.422,2.422,0,0,0-2.066.645,1.547,1.547,0,0,0,.095,1.966,4.738,4.738,0,0,0,4.131,1.813,4.1,4.1,0,0,0,3.5-2.027,4.622,4.622,0,0,0,.376-1.543c.019-.163.037-.326.074-.528a5.692,5.692,0,0,1,.235-.942,3.8,3.8,0,0,0,.232-1.43,95.674,95.674,0,0,1,4.919,11.156c-.182.057-.4.111-.553.15a4.2,4.2,0,0,0-1.75.732l-.043.038a3.082,3.082,0,0,0-.8,2.009,3.27,3.27,0,0,1-.14.725c-.172.181-.5.112-1.738-.589a6.085,6.085,0,0,0-2.189-.9c-.876-.253-1.969-.513-3.124-.788a49.2,49.2,0,0,1-4.894-1.329,9.826,9.826,0,0,1-.13-2.821,13.473,13.473,0,0,0-.034-2.355,1.734,1.734,0,0,0-.634-1.257,2.953,2.953,0,0,0-2.376-.279,4.728,4.728,0,0,1-.952.091l-.12-.01-.121.018a36.207,36.207,0,0,1-3.96.295,22.085,22.085,0,0,0-7.263,1.1l-.19.1a9.174,9.174,0,0,1-6.131,1.471l-.064,0c-.386-.011-.761-.032-1.126-.051-1.96-.108-3.811-.21-5.747,1.211a8.021,8.021,0,0,1-1.363.745c-1.279.6-3.024,1.426-3.12,3.449a10.591,10.591,0,0,0-.008,2.188c.064,1.072.152,2.533-.289,2.967-.8.584-2.371,1.716-4.136,2.984-2.846,2.046-6.072,4.365-7.495,5.432l-.141.127c-.965,1.056-.56,2.3-.264,3.209.068.206.137.419.2.648a3.2,3.2,0,0,0,2.164,2.1c.16.069.314.134.453.2a2.77,2.77,0,0,1-.6,1.853l-.043.05a2.948,2.948,0,0,1-.369.352,3.373,3.373,0,0,0-.886,1.03l-.065.126-.027.138a35.676,35.676,0,0,0-.287,6.665c.013.947.025,1.842.012,2.626l-.005.254.116.225a25.84,25.84,0,0,0,4.044,5.083c1.083,1.171,2.311,2.5,3.482,3.951l.092.1a14.391,14.391,0,0,1,1.537,1.785c1.084,1.413,2.2,2.876,4.681,2.675a8.945,8.945,0,0,0,3.221-.424,11.3,11.3,0,0,1,1.727-.361c.77-.023,1.787-.015,2.77-.009,1.247.01,2.536.019,3.428-.031a4.516,4.516,0,0,0,2.707-1.3,6.94,6.94,0,0,1,.809-.608c1.007-.6,3.182-.363,3.962-.278a3.631,3.631,0,0,1,1.613,1.088,11.373,11.373,0,0,0,.939.812l.062.043a9.832,9.832,0,0,0,4.668,1.072,15.46,15.46,0,0,1,2.1.223l.12.025.122,0a.106.106,0,1,1,.185.1l-.033.179c-.085.908-.24,2.455-.39,3.953-.141,1.406-.277,2.769-.348,3.525a3.526,3.526,0,0,0,.561,2.578c.6,1.174,1.729,3.1,2.92,5.141,1.7,2.912,3.616,6.187,4.361,7.877a22.136,22.136,0,0,1-1.693,3.371,15.556,15.556,0,0,0-2.269,5.4c-.434,2.806,1.024,4.407,2.089,5.576.682.749,1.1,1.241,1.084,1.759a97.287,97.287,0,0,1-35.054,30.49c-.142.071-.283.145-.425.215-.044.023-.088.044-.132.066a100.841,100.841,0,0,1-32.276,9.693,97.067,97.067,0,0,1-29.424-1.047c.079-.135.17-.28.244-.4a3.472,3.472,0,0,0,.788-2.773,2.472,2.472,0,0,0-1.424-1.513l-.048-.022a2.986,2.986,0,0,1-.941-.592,3.418,3.418,0,0,1,1.486-.412c.3-.044.617-.088.915-.157a28.416,28.416,0,0,0,8.421-3.845l.168-.112.113-.166c.592-.876,1.107-1.735,1.605-2.565a27.528,27.528,0,0,1,3.142-4.506l.047-.055c.668-.859,1.356-1.74,2.042-2.618l1.808-2.314c.858-1.1,1.223-1.645.9-3.151-.125-.6-.266-1.217-.408-1.831-.083-.356-.165-.712-.236-1.023-.069-.392-.163-.765-.255-1.125a3.932,3.932,0,0,1-.192-2.062c.079-.16.161-.335.247-.519.439-.937,1.037-2.215,1.8-2.215h.092c.539-.007,1.094.022,1.634.047,2.263.106,4.826.228,6.851-2.006.183-.158.394-.315.616-.48a3.91,3.91,0,0,0,1.978-2.8c.154-1.051.294-2.616.457-4.425.253-2.815.566-6.3,1.019-8.5a20.538,20.538,0,0,1,1.848-2.415,14.883,14.883,0,0,0,3.171-4.93,4.288,4.288,0,0,0,.183-3.383,3.666,3.666,0,0,0-2.47-1.659,6.085,6.085,0,0,1-1.943-.9,12.608,12.608,0,0,1-1.349-2c-.306-.518-.6-1.008-.889-1.417-.787-1.527-3.388-1.563-7.234-1.444a21,21,0,0,1-2.753-.011l-.125-.011a17.8,17.8,0,0,1-6.18-1.849c-.8-.346-1.57-.674-2.33-.957a3.2,3.2,0,0,1-.3-1.767,9.03,9.03,0,0,0-.086-1.377,9.187,9.187,0,0,0-1.732-5l-.133-.222c-.618-1.144-1.38-2.572-3.616-2.5a11.553,11.553,0,0,0-2.236-.019c-1.756.1-2.941.094-3.39-.757l-.076-.122c-.4-.547-.779-1.185-1.183-1.862-1.388-2.322-3.114-5.211-6.46-5.229l-.261,0-.229.124a3.264,3.264,0,0,0-1,.913c-.324.4-.374.453-.626.442h-.077l-.076.011c-4.615.652-5.015.007-5.568-.886-.567-.917-1.344-2.173-4.315-2.733l-.142-.016a8.119,8.119,0,0,1-1.629-.346c-1.5-.417-3.547-.988-4.912.732-.56.637-1.447,1.657-2.3,2.64-.557.641-1.1,1.265-1.527,1.755l-.149.17c-.679.776-.678.777-1.157.7-1.526-.238-5.539-.915-7.132-1.191l-.082-.011c-.273-.025-.278-.063-.264-.292l.005-.067-.005-.068c-.045-.619-.1-1.458-.155-2.383-.138-2.213-.31-4.968-.48-6.35l-.024-.124a1.942,1.942,0,0,0-1.48-1.427c-.722-.2-1.7-.356-2.65-.51-.548-.089-1.078-.174-1.492-.258-.156-.034-.306-.063-.447-.09l-.1-.02c.181-.393.4-.8.633-1.225a14.473,14.473,0,0,0,1.059-2.244l.027-.091c.291-1.226.27-3.318-.982-4.052-.437-.256-1.344-.521-2.549.531-.864.529-1.807,1.194-2.72,1.838a28.085,28.085,0,0,1-4.344,2.717c-.273-.015-.568-.025-.876-.034-1.4-.044-3.311-.1-3.889-.931-.076-.152-.156-.306-.237-.462a6.447,6.447,0,0,1-1-2.939,20.816,20.816,0,0,1,4-9.009,32.079,32.079,0,0,1,3.6-1.91c.785-.379,1.527-.736,2.052-1.03a2.531,2.531,0,0,1,1.333-.382h.025c.972.043,2.529.021,4.332-.006,2.559-.037,5.684-.082,7.515.081a6.05,6.05,0,0,1,.008.751,7.52,7.52,0,0,0,.027,1.132c.019,2.2,2.411,3.11,3.847,3.655.334.127.65.247.85.348l.141.058a1.472,1.472,0,0,0,1.352-.16,1.6,1.6,0,0,0,.643-1.312,14.71,14.71,0,0,0-.087-2.479,12.552,12.552,0,0,1-.025-3.252c1.516-2.383,4.125-4.068,6.651-5.7.872-.564,1.775-1.146,2.62-1.75l.114-.094a5.345,5.345,0,0,0,1.5-2.991,3.71,3.71,0,0,1,1.508-2.582l.1-.087c.731-.72,1.454-1.5,2.154-2.248a41.917,41.917,0,0,1,3.44-3.426c.864-.543,2.044-1.182,3.187-1.8,1.059-.574,2.059-1.116,2.831-1.587a3.248,3.248,0,0,0,1.42-1.681c.032-.068.064-.139.1-.213a23.335,23.335,0,0,1,3.465-3.368l.232-.2c.22-.188.376-.179,1.119.075a3.921,3.921,0,0,0,1.934.288l.114-.025a3.394,3.394,0,0,0,1.991-1.487,1.71,1.71,0,0,0,.1-1.381l-.074-.2-.153-.156a3.412,3.412,0,0,0-1.589-.75c-.493-.14-1.17-.331-1.286-.625a.433.433,0,0,1,.037-.517,1.847,1.847,0,0,1,1.637-.44,3.39,3.39,0,0,1,1.57.916,3.914,3.914,0,0,0,3.883,1.148,5.147,5.147,0,0,0,2.885-1.071,6.444,6.444,0,0,1,.995-.553,3.554,3.554,0,0,1-.519,1.027c-.556.882-1.485,2.358-.114,3.733l.139.117c1.015.707,6.355,2.937,8.024,1.865l.1-.069a2.806,2.806,0,0,0,.988-2.189,2.7,2.7,0,0,0-.925-2.04,6.156,6.156,0,0,0-2.012-1.132,9.644,9.644,0,0,1-1.816-.926c.02-.019.043-.041.07-.064a4.507,4.507,0,0,1,.973-.435,4.349,4.349,0,0,0,2.139-1.326l.081-.105.051-.122c1.7-4.082-.592-5.45-2.107-6.356-1.247-.746-1.894-1.191-1.825-2.4l0-.176-.038-.15a9.164,9.164,0,0,1-.026-1.278c.03-1.621.059-3.152-.934-3.779a1.556,1.556,0,0,0-1.5-.067,12.461,12.461,0,0,0-2.15,1.008c-.972.523-3,1.614-3.548,1.346-.027-.013-.076-.088-.114-.239q.039-.45.075-.832c.322-3.473.1-4.029-4.008-4.892l-.635-.134-.128-.035c-3.257-.894-5.051-1.387-7.935,1.707l-.116.15c-.862,1.365-.767,3.008-.676,4.6a13.129,13.129,0,0,1,.014,2.139l-.014.122.016.121c.126.972-.259,1.253-2.423,1.77a6.314,6.314,0,0,0-3.657,1.77,10.365,10.365,0,0,0-1.14,2.088,8,8,0,0,1-1.1,1.966,2.842,2.842,0,0,1-.864.462,8.886,8.886,0,0,1-.152-2.537c.012-.439.024-.855.012-1.227.122-2.811-2.548-2.982-3.985-3.073a6.129,6.129,0,0,1-1.648-.239l-.127-.043c-.859-.231-2.91-.97-3.387-2.8-.062-.277-.146-.544-.227-.8a3.4,3.4,0,0,1-.234-1.117c.391-.242.808-.505,1.248-.781a67.436,67.436,0,0,1,9.338-5.2,8.84,8.84,0,0,0,1.234-.384,4.347,4.347,0,0,1,1.456-.375c.083.172.165.388.246.6a4.617,4.617,0,0,0,.912,1.654,2.2,2.2,0,0,0,2.507.418,4.882,4.882,0,0,0,1.446-.98,3.954,3.954,0,0,1,.858-.637l.119-.07a2.324,2.324,0,0,1,.308-.14,2.219,2.219,0,0,0,1.367-1.171,2.056,2.056,0,0,0-.244-1.641c-.033-.071-.077-.168-.114-.255a4.3,4.3,0,0,1,.834-.2,5.623,5.623,0,0,0,1.157-.288,9.089,9.089,0,0,0,2.538-1.782c.983-.888,1.689-1.529,3.005-1.464l.085,0,.083-.01c.589-.068,1.131-.15,1.638-.227,2.343-.357,3.486-.531,5.1,1.233-.915.508-1.991,1.072-3.126,1.667-1.327.7-2.7,1.416-3.822,2.052a1.267,1.267,0,0,0-.754,1.293c.111.8.93,1.014,1.249,1.1,1.064.262,3.724.892,6.034,1.439,1.138.269,2.192.518,2.931.695a2.46,2.46,0,0,0,2.154-.189l.16-.12.1-.171c.43-.716.727-1.273.966-1.721a3.364,3.364,0,0,1,.666-1.041,7.884,7.884,0,0,1,1.974-.208c.376-.019.806-.04,1.3-.07l.207-.033a3.824,3.824,0,0,0,2.647-4.109l-.056-.174a2.639,2.639,0,0,0-1.725-1.281,2.552,2.552,0,0,1-.8-.39,2.488,2.488,0,0,1-.242-1.434,4.919,4.919,0,0,0-.3-2.01l-.081-.178-.142-.136c-1.124-1.076-3.119-1.87-5.232-2.71a37.652,37.652,0,0,1-3.613-1.58,6.221,6.221,0,0,0-2.1-.8q4.692-.459,9.505-.466a96.572,96.572,0,0,1,69.948,29.9m-74.35,9.074a7.088,7.088,0,0,0,.629-1.16c.36,1.08,1.72,1.663,3.039,2.229a8.493,8.493,0,0,1,1.318.64l.159.157a.692.692,0,0,1,.23.534.833.833,0,0,1-.162.515c-.938.138-4.537-1.03-5.666-1.752-.107-.133-.088-.305.453-1.163M278.6,8.966a7.875,7.875,0,0,1,.049,1l-.005.109.018.109a1.358,1.358,0,0,1,.023.349,6.683,6.683,0,0,1-2.04-.338l-.058-.016a1.437,1.437,0,0,1-.584-1.757,5.561,5.561,0,0,1,1.3-1.389c.287-.248.584-.5.824-.75a4.828,4.828,0,0,0,.785-.867,1.527,1.527,0,0,0,.273-.845c.836-.195,1.675-.382,2.519-.555A14.731,14.731,0,0,0,279.4,5.481l-.163.158a4.352,4.352,0,0,0-.632,3.327m-9.895-.978c.239.08.486.136.725.191.157.036.393.089.539.135-.006.086-.02.191-.03.257-.018.092-.035.186-.052.282a3.169,3.169,0,0,1-.178.707c-.036.008-.093.018-.183.03-.356.045-.825.069-1.32.094a14.433,14.433,0,0,0-2.324.239,2.656,2.656,0,0,0-1.648,1.57c-.076.148-.148.287-.21.384a.275.275,0,0,1-.1.019c-1.12.049-3.93.129-5.339.163l.025-.045a.682.682,0,0,1,.139-.15,96.053,96.053,0,0,1,9.373-4,3.629,3.629,0,0,1,.582.124m-12.132,4.978a1.7,1.7,0,0,0,.2.422,1.653,1.653,0,0,0,1.41.711c.057,0,.115,0,.173-.007,1.264-.028,4.4-.115,5.676-.171a2.067,2.067,0,0,0,1.653-.887,5.324,5.324,0,0,0,.354-.611,2.43,2.43,0,0,1,.322-.531,13.58,13.58,0,0,1,1.947-.183c.533-.028,1.038-.054,1.472-.108a2.285,2.285,0,0,0,1.312-.535l.045-.044a3.3,3.3,0,0,0,.75-1.815c.016-.09.032-.179.049-.264l.01-.06a2.126,2.126,0,0,0-.629-2.116q2.4-.78,4.845-1.437c-.064.056-.125.11-.192.167a6.925,6.925,0,0,0-1.817,2.069l-.04.092a3.419,3.419,0,0,0,1.767,4.421l.234.07c1.32.353,2.96.791,3.969-.122a2.206,2.206,0,0,0,.6-2.074,10.252,10.252,0,0,0-.059-1.166A3.218,3.218,0,0,1,280.756,7a9.662,9.662,0,0,1,4.855-2.074c.827-.044,1.609-.163,2.366-.278,1.809-.276,3.373-.514,4.862.395l.049.029a38.57,38.57,0,0,0,3.847,1.69,19.249,19.249,0,0,1,4.408,2.14,5.107,5.107,0,0,1,.07,1.026,3.941,3.941,0,0,0,.748,2.757,3.757,3.757,0,0,0,1.628.954c.159.059.378.139.514.207a1.971,1.971,0,0,1-1.129,1.472c-.435.025-.818.044-1.156.061-2.819.139-3.221.237-4.335,2.322-.185.347-.407.763-.7,1.267-.145-.024-.327-.066-.42-.088-.734-.175-1.788-.424-2.928-.694-1.459-.345-3.058-.724-4.3-1.021.671-.359,1.377-.729,2.071-1.093,1.17-.613,2.38-1.248,3.355-1.793a1.971,1.971,0,0,0,1.123-1.286,1.6,1.6,0,0,0-.445-1.346c-2.506-3-4.6-2.678-7.26-2.273-.462.07-.955.145-1.487.208a5.848,5.848,0,0,0-4.384,1.991,7.245,7.245,0,0,1-1.948,1.41,4.169,4.169,0,0,1-.728.164,2.98,2.98,0,0,0-2.461,1.433l-.048.121a2.384,2.384,0,0,0,.29,1.749l.026.054-.073.03a3.8,3.8,0,0,0-.617.3,5.858,5.858,0,0,0-1.25.911,3.146,3.146,0,0,1-.838.608.843.843,0,0,1-.288.069,3.15,3.15,0,0,1-.486-.975,5.192,5.192,0,0,0-.673-1.354l-.143-.187-.213-.1a4.112,4.112,0,0,0-3.276.238,6.463,6.463,0,0,1-1,.313l-.2.056a67.748,67.748,0,0,0-9.76,5.4c-.541.34-1.049.659-1.513.944l-.2.124-.126.2a3.409,3.409,0,0,0-.032,2.95c.067.216.136.43.191.673.526,2.022,2.265,3.575,4.775,4.267a7.584,7.584,0,0,0,2.233.364c2.032.13,2.118.341,2.082.989l0,.047v.046c.013.317,0,.717-.01,1.14-.047,1.746-.1,3.726,1.229,4.425,1.224.643,2.634-.377,3.1-.712l.143-.125a9.042,9.042,0,0,0,1.538-2.592,8.977,8.977,0,0,1,.885-1.668,4.988,4.988,0,0,1,2.532-1.05c1.708-.408,4.276-1.021,3.98-3.877a15.416,15.416,0,0,0-.017-2.363,6.435,6.435,0,0,1,.323-3.328c1.991-2.111,2.826-1.882,5.834-1.056l.884.2a8.6,8.6,0,0,1,2.448.686,6.794,6.794,0,0,1-.046,2.036c-.028.3-.059.631-.089,1l-.011.129.022.129a2.333,2.333,0,0,0,1.255,1.828c1.488.72,3.567-.4,5.4-1.386a17.061,17.061,0,0,1,1.546-.775,15.138,15.138,0,0,1,.04,1.792,8.953,8.953,0,0,0,.057,1.673c-.068,2.382,1.595,3.377,2.816,4.107,1.453.868,2.266,1.355,1.333,3.694a3.379,3.379,0,0,1-1.149.572,5.876,5.876,0,0,0-1.505.724l-.049.038a2.819,2.819,0,0,0-.662.763.28.28,0,0,0-.007-.031L297.6,38.2a2.088,2.088,0,0,0-1.279-1.265,3.376,3.376,0,0,0-2.723.807,3.523,3.523,0,0,1-1.758.756l-.247-.038-.236.081c-.873.3-1.286,0-2.139-.714a5.16,5.16,0,0,0-2.523-1.358,3.8,3.8,0,0,0-3.568,1.157,2.442,2.442,0,0,0-.341,2.562,3.436,3.436,0,0,0,2.574,1.8,1.462,1.462,0,0,1-.171.07,2.616,2.616,0,0,1-.9-.211,2.9,2.9,0,0,0-3.1.3l-.231.2a23.537,23.537,0,0,0-3.853,3.808l-.082.137c-.057.117-.108.227-.157.333-.205.447-.267.581-.617.786-.744.454-1.721.984-2.756,1.545-1.2.649-2.437,1.32-3.364,1.907l-.11.08a42.77,42.77,0,0,0-3.674,3.642c-.669.719-1.361,1.462-2.045,2.139a5.684,5.684,0,0,0-2.209,3.705,3.527,3.527,0,0,1-.881,1.934c-.787.56-1.609,1.091-2.478,1.651-2.762,1.783-5.617,3.627-7.361,6.473l-.075.122-.038.139a12.59,12.59,0,0,0-.073,4.093c.05.57.1,1.12.1,1.572l-.253-.1c-1.345-.51-2.551-1.032-2.537-1.807v-.079l-.011-.079a5.547,5.547,0,0,1-.018-.869,3.222,3.222,0,0,0-.623-2.443l-.247-.267-.361-.049a72.277,72.277,0,0,0-8.354-.158c-1.7.025-3.3.048-4.251.006a4.63,4.63,0,0,0-2.369.622c-.506.282-1.221.627-1.979.992a30.92,30.92,0,0,0-4.015,2.17l-.128.091-.1.125a22.925,22.925,0,0,0-4.5,10.12l-.008.082a7.867,7.867,0,0,0,1.22,4.025c.087.167.172.331.253.494l.051.089c1.125,1.768,3.691,1.848,5.565,1.906.372.012.722.022,1.032.046l.233.018.217-.086a26.832,26.832,0,0,0,4.977-3.032c.955-.674,1.857-1.31,2.682-1.811l.157-.117a2.414,2.414,0,0,1,.253-.2,3.62,3.62,0,0,1,.015,1.647,13.326,13.326,0,0,1-.9,1.881,17.892,17.892,0,0,0-.867,1.743l-.023.064a1.812,1.812,0,0,0,.074,1.5,2.233,2.233,0,0,0,1.69.891c.123.024.254.049.41.084.455.091,1.011.182,1.588.275.9.146,1.821.3,2.4.453l.079.027c.157,1.374.318,3.96.449,6.056.057.9.108,1.724.151,2.341a2.189,2.189,0,0,0,2.067,2.357c1.624.282,5.607.953,7.128,1.191,1.588.251,2.182-.43,3.007-1.371l.148-.17c.431-.493.974-1.119,1.532-1.76.861-.991,1.754-2.019,2.311-2.651l.04-.048c.474-.608,1.248-.475,2.778-.049a9.974,9.974,0,0,0,2.005.415c2.033.394,2.433,1.042,2.9,1.792.993,1.605,2.055,2.6,7.515,1.839a2.673,2.673,0,0,0,2.15-1.2c.078-.1.15-.186.218-.258,2,.2,3.166,2.158,4.4,4.223.4.664.808,1.351,1.244,1.958,1.107,1.995,3.506,1.865,5.264,1.769a9.451,9.451,0,0,1,1.89.011l.112.019.113-.006c.948-.038,1.175.211,1.856,1.469l.155.261a7.252,7.252,0,0,1,1.448,4.061l.017.185a6.941,6.941,0,0,1,.067,1.117c.013,1.142.03,2.563,1.186,3.437l.123.093.146.053c.765.275,1.561.618,2.4.98a19.418,19.418,0,0,0,6.878,2.012,21.817,21.817,0,0,0,3.049.023c1.442-.044,4.8-.15,5.374.376l.1.166c.251.338.533.816.831,1.321a13.071,13.071,0,0,0,1.685,2.433l.084.077a7.794,7.794,0,0,0,2.642,1.3c.6.194,1.156.378,1.277.624.066.133.169.578-.281,1.836l-.018.054a13.463,13.463,0,0,1-2.786,4.229,19.856,19.856,0,0,0-2.138,2.854l-.075.134-.033.149a85.118,85.118,0,0,0-1.089,8.9c-.162,1.8-.3,3.358-.449,4.351l-.009.091c-.027.47-.461.815-1.166,1.339-.265.2-.538.4-.8.63l-.083.083c-1.387,1.557-3.1,1.477-5.277,1.374-.559-.027-1.137-.056-1.721-.049-2.1-.086-3.136,2.085-3.743,3.384-.088.187-.17.364-.25.522l-.047.107a5.411,5.411,0,0,0,.113,3.3c.087.34.168.661.233,1.024s.164.722.247,1.083c.139.6.277,1.2.4,1.792.14.653.14.653-.514,1.487l-1.808,2.316c-.68.87-1.362,1.743-2.024,2.594a29.477,29.477,0,0,0-3.348,4.791c-.451.752-.918,1.529-1.435,2.3a26.121,26.121,0,0,1-7.585,3.449c-.214.05-.471.086-.742.124a4.017,4.017,0,0,0-3.005,1.41l-.044.069a1.8,1.8,0,0,0-.15,1.5,3.8,3.8,0,0,0,2.123,1.893.872.872,0,0,1,.333.235c.041.2-.36.829-.553,1.134a6.357,6.357,0,0,0-.579,1.066,95.967,95.967,0,0,1-10.056-2.714c.107-.687.157-1.428.2-2.094l.021-.339a3.982,3.982,0,0,0-1.072-3.115l-.641-.861c-.581-.782-1.194-1.6-1.732-2.336-.394-.516-.438-.711-.379-1,.1-.652.326-1.887.562-3.2.145-.809.3-1.648.43-2.41.058-.346.115-.644.164-.9.433-2.281.061-2.747-2.056-3.628,0-1.558,0-5.676,0-9.689v-6.852c-.012-.536-.005-.959,0-1.31a6.636,6.636,0,0,0-.072-1.454l-.031-.15-.073-.133a5.736,5.736,0,0,0-1.823-1.7c-.325-.228-.632-.443-.882-.656l-.06-.048c-.394-.287-.771-.569-1.136-.84a34.875,34.875,0,0,0-3.108-2.153l-.1-.052a13.9,13.9,0,0,0-2.262-.762c-1.259-.331-1.421-.373-1.711-2.583l-.012-.07a4.488,4.488,0,0,0-1.173-2.34l-.185-.23c-.842-1.108-1.867-2.379-2.952-3.725-1.6-1.989-3.263-4.044-4.433-5.706a7.992,7.992,0,0,1,.325-2,11.088,11.088,0,0,0,.394-2.294c.055-.849.094-1.815.132-2.748.026-.637.051-1.268.082-1.867.035-.867.035-.867.808-1.4.536-.38,1.1-.778,1.659-1.171l1.063-.749.065-.051a6.857,6.857,0,0,1,.642-.448,3.052,3.052,0,0,0,1.788-2.479c-.036-.913-.208-2.27-.375-3.582-.092-.723-.181-1.418-.237-1.976-.142-1.416-.767-2.156-1.857-2.2-.821-.085-2.576-.214-4.273-.339-1.13-.083-2.2-.161-2.817-.214l-.124-.013a2.854,2.854,0,0,1-.434-.064c-1.036-1.018-2.429-2.664-3.663-4.122-1.11-1.312-2.159-2.551-2.89-3.274l-.058-.054a5.188,5.188,0,0,0-2.112-.941c-.187-.05-.376-.1-.6-.169l-.645-.178c-1.182-.326-2.3-.635-3.333-.816l-.06-.009c-.255-.029-1.084-.157-1.044-.57l0-.056,0-.2a2.4,2.4,0,0,0-.94-2.225l-.089-.051a4.929,4.929,0,0,0-3.853-.279l-.077.042a2.371,2.371,0,0,0-.782.829c-1.253-.3-3.82-.937-5.841-1.439l-2.171-.539-.067-.014c-.4-.071-.627-.19-.978-.779-.483-.738-1.025-1.574-1.551-2.387l-.847-1.306c-.619-.946-.657-1.073-.561-1.342a5.234,5.234,0,0,1,.377-.808c.444-.838,1.183-2.234.114-3.555-.987-1.459-3.056-4.508-4.015-5.9a4.256,4.256,0,0,0-.312-.381,96.812,96.812,0,0,1,49.218-62.518M204.589,98.4a96.5,96.5,0,0,1,.989-13.757,2.635,2.635,0,0,1,.531-.582,4.279,4.279,0,0,0,1.052-1.288,4.56,4.56,0,0,0,.056-3.393,9.013,9.013,0,0,1-.206-.89c1.073,1.573,2.44,3.588,3.015,4.439l.065.085c.192.228.174.422-.318,1.35a6.7,6.7,0,0,0-.508,1.115c-.437,1.217.1,2.043.787,3.089l.842,1.3c.528.815,1.071,1.654,1.533,2.359a3.191,3.191,0,0,0,2.314,1.7l2.137.53c2.069.514,4.709,1.17,5.894,1.451a1.745,1.745,0,0,0,2.149-.88c.035-.058.087-.142.118-.181a3.27,3.27,0,0,1,1.846.242,2.923,2.923,0,0,1,.033.534v.109c-.106,1.435.988,2.495,2.808,2.716.932.165,1.993.458,3.116.768l.612.168c.213.067.43.125.646.183a3.684,3.684,0,0,1,1.3.508c.667.666,1.672,1.854,2.735,3.11,1.371,1.62,2.789,3.3,3.909,4.374l.156.124a2.96,2.96,0,0,0,1.381.4l.134.014c.649.055,1.724.134,2.863.218,1.6.118,3.4.25,4.2.332a3.151,3.151,0,0,1,.058.388c.058.575.149,1.288.243,2.029.154,1.21.328,2.582.36,3.357,0,.19-.5.513-.865.749a8.933,8.933,0,0,0-.8.567l-1.029.725c-.561.4-1.127.793-1.657,1.169a3.062,3.062,0,0,0-1.668,2.966c-.031.6-.057,1.235-.083,1.879-.037.921-.076,1.874-.132,2.742a9.769,9.769,0,0,1-.339,1.907,7.7,7.7,0,0,0-.331,3.024l.039.22.127.183c1.218,1.756,2.97,3.929,4.665,6.03,1.075,1.334,2.092,2.593,2.929,3.694l.2.254a2.569,2.569,0,0,1,.764,1.445c.427,3.206,1.264,3.734,3.205,4.244a12.223,12.223,0,0,1,1.9.632,33.436,33.436,0,0,1,2.87,2c.361.268.733.546,1.123.831.315.265.664.51,1,.747a7.147,7.147,0,0,1,1.127.9c.019.208.014.478.008.845s-.015.824,0,1.371v6.826c0,4.174,0,8.463,0,9.893a1.684,1.684,0,0,0,.784,1.459l.171.088a11.546,11.546,0,0,1,1.285.569,9,9,0,0,1-.149.932c-.052.272-.111.583-.171.938-.132.753-.282,1.59-.427,2.4-.238,1.326-.463,2.578-.56,3.195a3.019,3.019,0,0,0,.749,2.578c.531.721,1.145,1.546,1.729,2.331l.645.867c.648.856.717,1.039.671,1.774l-.021.34c-.033.529-.067,1.069-.125,1.552A96.56,96.56,0,0,1,204.589,98.4" fill="#1a5929"/>
    <path id="Path_622" data-name="Path 622" d="M242.738,36.627c.177.352.321.639.388.787l.036.071a1.349,1.349,0,0,0,1.193.707,1.874,1.874,0,0,0,.511-.075c.16-.052.37-.115.6-.185a19.572,19.572,0,0,0,2.01-.684l.117-.053.1-.079a2.183,2.183,0,0,0,.743-1.411,2.552,2.552,0,0,1,.079-.332l.039-.138c.046-.23.125-.512.206-.8a8.027,8.027,0,0,0,.359-1.811c-.021-.951-1.019-1.192-1.445-1.295l-.091-.021c-.2-.042-.4-.1-.616-.152a8.21,8.21,0,0,0-1.422-.283l-.1-.008-.1.013a5.4,5.4,0,0,0-1.749.669c-.245.127-.476.248-.673.329l-.09.042c-.119.063-.229.112-.33.158a3.056,3.056,0,0,0-.787.463l-.163.14-.291.615.119.379a26.885,26.885,0,0,0,1.362,2.958m1-2.9c.269-.113.537-.253.8-.388a5.548,5.548,0,0,1,.974-.437,8.27,8.27,0,0,1,.946.211c.18.047.359.093.519.13-.054.218-.118.451-.173.65-.086.314-.169.617-.224.872a4.491,4.491,0,0,0-.134.549c-.011.057-.025.126-.038.182-.428.163-1.049.351-1.524.494l-.161.049c-.049-.1-.1-.206-.16-.319-.27-.54-.664-1.323-.941-1.933l.12-.06" fill="#1a5929"/>
    <path id="Path_623" data-name="Path 623" d="M248.449,42.007a2.183,2.183,0,0,0-.306,1.909c.347.834,1.217,1.049,2.059,1.257l.133.033c-.35.354-.728.774-1.1,1.185-.281.312-.546.607-.778.846a2.759,2.759,0,0,0-.713,1.563c-.043.292-.087.546-.126.77-.328,1.881-.085,2.574,2.181,3.56a1.359,1.359,0,0,0,1.679-.388l.032-.042c.718-.983,4.1-5.687,4.669-6.495a1.189,1.189,0,0,0,.263-.735h.3a3.839,3.839,0,0,0-.018.643c0,.073.006.141,0,.181l-.007.077,0,.078c.016.256.006.608,0,.979a8.283,8.283,0,0,0,.094,1.989l.071.291.218.206a1.078,1.078,0,0,0,.16.126c-.041.048-.079.095-.113.138s-.09.109-.124.146l-.162.014c-.063.011-.13.013-.2.018a1.9,1.9,0,0,0-1.458.618l-.093.132a10.781,10.781,0,0,0-.666,2.585l-.015.149.028.147A1.242,1.242,0,0,0,255.918,55a1.835,1.835,0,0,1,.223,0l.039,0h.039c.316,0,.7,0,1.082,0h.616c.448,0,.837,0,1.077-.018a2.064,2.064,0,0,0,1.322-.73c.044-.045.089-.091.137-.136l.047-.047c.08-.086.179-.181.281-.281a3.317,3.317,0,0,0,.928-1.186l.02-.064a7.1,7.1,0,0,0,.117-1.849,8.08,8.08,0,0,0,.936,1.361l.085.088a1.518,1.518,0,0,0,.983.4l.053,0c.1,0,2.588.018,3.192-.007l.149-.017c.422-.081,1.122-.394,1.06-1.592a1.132,1.132,0,0,1,0-.153l.008-.07v-.071c0-.153,0-.314,0-.473a7.407,7.407,0,0,0-.027-.951l-.019-.158-.267-.579-.377-.15c-.359-.142-.822-.295-1.319-.446.075-.064.149-.129.222-.194s.167-.151.245-.208l.1-.083c.036-.034.089-.074.143-.117a1.772,1.772,0,0,0,.684-.819l.2-.62-.483-.438a14.035,14.035,0,0,0-1.924-1.237l-.137-.076-.153-.031a1.265,1.265,0,0,0-1.2.463l-.037.039c-.073.082-.173.182-.277.287a6.543,6.543,0,0,0-.617.677l-.193.261-.012.8.328.307.126.116a1.666,1.666,0,0,0-.644-.033c0-.02,0-.038,0-.057,0-.072,0-.141,0-.2V46.66c0-.123,0-.262,0-.4a5.491,5.491,0,0,0-.039-.953L262.6,45.1l-.172-.267a1.043,1.043,0,0,0,.625-.694,1.076,1.076,0,0,0-.293-1.053l-.046-.046c-.341-.311-2.056-1.873-2.312-2.087l-.126-.106-.689-.257-.439.282a1.006,1.006,0,0,0-.367.408.67.67,0,0,1-.291-.376l-.032-.118a1.579,1.579,0,0,0-1.287-1.07l-.074-.009c-.646-.054-1.564-.045-2.373-.036-.416,0-.8.007-1.107,0a4.373,4.373,0,0,0-1.935.408c-.195.093-.46.19-.739.293a4.3,4.3,0,0,0-2.49,1.634m15.777,7.374c.659.188,1.437.41,2.049.613,0,.046,0,.092,0,.139,0,.129,0,.259,0,.386-.624,0-1.478,0-2.118,0a5.021,5.021,0,0,1-.516-.785c-.019-.18-.03-.361-.035-.529l.624.179m-2.808-.282.147-.094c0,.174.005.342.013.494l-.245-.244-.087-.045.172-.111m-11.239,1.978a2.931,2.931,0,0,1-.662-.375,5.491,5.491,0,0,1,.106-.785c.042-.241.089-.514.134-.826a.749.749,0,0,1,.175-.459c.231-.236.516-.552.817-.886.425-.471.938-1.041,1.3-1.377.288-.025.632-.018,1-.011.173,0,.348.006.522.007-1.059,1.476-2.63,3.66-3.391,4.712m8.581-3.6c.01-.392.019-.764,0-1.092v0c.582-.015,1.291-.016,1.87,0,0,.109,0,.215,0,.314,0,.071,0,.15,0,.233s0,.17,0,.255c-.1.068-.225.15-.314.207-.123.079-.241.154-.3.2l-.114.075a2.44,2.44,0,0,1-.393.234c-.193.049-.475.106-.762.16,0-.195.007-.4.012-.581m-.023,3.973c.037-.047.073-.09.106-.128a3.637,3.637,0,0,1,.46-.07c.165-.019.337-.039.519-.069a6.188,6.188,0,0,1-.036.715c-.1.118-.3.314-.429.439-.113.112-.224.219-.316.317-.063.059-.123.12-.182.18-.04.041-.091.093-.129.129-.3.009-.9.007-1.422.005h-.652c.048-.217.1-.43.144-.592h.009c.108-.008.216-.016.319-.03a2.077,2.077,0,0,0,1.609-.9m-8.53-8.426.032-.057a4.258,4.258,0,0,1,1.4-.695c.324-.12.631-.232.864-.345a2.381,2.381,0,0,1,1.071-.231c.316.006.724,0,1.161,0,.634-.006,1.336-.013,1.872.01a2.723,2.723,0,0,0,.958,1.2c.013.135.01.347.008.474v.056c-1.01,0-2.776,0-4.116,0h-1.433a3.727,3.727,0,0,1-1-.153l-.333-.084c-.16-.039-.352-.087-.511-.133.008-.015.017-.029.026-.045" fill="#1a5929"/>
  </g>
</svg>
